# xmcd CD database file
# Generated: Wed May 2 20:30:27 2001 by KSCD
# 
# Track frame offsets:
#       150
#       9864
#       22328
#       38814
#       51350
#       64442
#       81865
#       95864
#       102939
#       119362
#       134843
#       157042
#
# Disc length: 2213 seconds
#
# Revision: 4
# Processed by: cddbd v1.4b41PL1 Copyright (c) Steve Scherf et al.
# Submitted via: Kscd 1.2.7
#
DISCID=ae08a30c
DTITLE=The Palmer Family - Cowboy Dreams
DYEAR=1900
DGENRE=
TTITLE0=A Cowboy Has To Sing
TTITLE1=Ragtime Cowboy Joe
TTITLE2=Quiet Utah Night
TTITLE3=Home In San Antone
TTITLE4=I Wanna Be A Cowboy's Sweetheart
TTITLE5=Carry Me Back To The Lone Prarie
TTITLE6=Cowboy Dreams
TTITLE7=Lonesome Fiddle Blues
TTITLE8=I'm So Lonesome I Could Cry
TTITLE9=The Wagon Tongue
TTITLE10=The Touch Of The Master's Hand
TTITLE11=Cowboy Jamboree
EXTD=Steve and Joyce, Deanna, Matt, Jason, Carissa\nHailing from Sheffield, V
EXTD=ermont\nFor booking information contact:\nJoyce Palmer F131002 PO Box 
EXTD=44209 - Cincinnati, OH 45244\n(c) 1997 The Palmer Family
EXTT0=
EXTT1=
EXTT2=
EXTT3=
EXTT4=
EXTT5=
EXTT6=
EXTT7=
EXTT8=
EXTT9=
EXTT10=
EXTT11=
PLAYORDER=
